# xmcd
#
# Track frame offsets:
#	150
#	18072
#	35962
#	57207
#	80090
#	96762
#	116657
#	136937
#	150332
#	162237
#
# Disc length: 2432 seconds
#
# Revision: 1
# Processed by: cddbd v1.4PL0 Copyright (c) Steve Scherf et al.
# Submitted via: EasyCDDAExtractor 5.1.0
#
DISCID=77097e0a
DTITLE=Denise LaSalle - This Real Woman
DYEAR=2000
DGENRE=R&B
TTITLE0=If I'm Only For Myself
TTITLE1=Whe She Stop Asking
TTITLE2=This Bedroom On Fire
TTITLE3=Dreaming All Day
TTITLE4=The Best Of The Rest
TTITLE5=Tell Him What You Want
TTITLE6=Fell In Love With Me
TTITLE7=Down On Clinton
TTITLE8=Trapped By a Thing Call Love
TTITLE9=God Is Absolutely Mad About You
EXTD=
EXTT0=
EXTT1=
EXTT2=
EXTT3=
EXTT4=
EXTT5=
EXTT6=
EXTT7=
EXTT8=
EXTT9=
PLAYORDER=
